<?xml version="1.0" encoding="utf-8"?>
<!-- Generator: Adobe Illustrator 16.0.0, SVG Export Plug-In . SVG Version: 6.00 Build 0)  -->
<!DOCTYPE svg PUBLIC "-//W3C//DTD SVG 1.1//EN" "http://www.w3.org/Graphics/SVG/1.1/DTD/svg11.dtd">
<svg version="1.1" id="Layer_1" xmlns="http://www.w3.org/2000/svg" xmlns:xlink="http://www.w3.org/1999/xlink" x="0px" y="0px"
	 width="67px" height="67px" viewBox="0 0 67 67" enable-background="new 0 0 67 67" xml:space="preserve">
<g>
	<circle fill="none" stroke="#FFFFFF" stroke-miterlimit="10" cx="33.5" cy="33.501" r="32.263"/>
	<path fill="#FFFFFF" d="M31.25,37.001c0-0.01,0-0.02-0.01-0.029c-0.07-0.32-0.14-0.66-0.17-1.02v-0.031
		c-0.04-0.33-0.06-0.68-0.06-1.029c0-0.32,0.02-0.619,0.05-0.92c0-0.01,0-0.01,0-0.02c0-0.111,0.02-0.221,0.03-0.33
		c0.03-0.18,0.06-0.35,0.09-0.521c0.02-0.109,0.04-0.209,0.07-0.309c0.02-0.041,0.02-0.08,0.02-0.131
		c0.03-0.27,0.04-0.549,0.04-0.83c0-0.219-0.01-0.439-0.02-0.65c-0.01-0.109-0.02-0.209-0.03-0.309
		c-0.02-0.191-0.04-0.381-0.07-0.57c-0.01-0.029-0.01-0.061-0.02-0.08c-0.03-0.199-0.07-0.4-0.13-0.59
		c-0.05-0.24-0.12-0.471-0.2-0.689c-0.03-0.121-0.08-0.24-0.13-0.352c-0.01-0.039-0.02-0.068-0.04-0.1
		c-0.06-0.141-0.12-0.279-0.19-0.42c-0.18-0.359-0.39-0.68-0.61-0.959c-0.06-0.07-0.12-0.131-0.18-0.201s-0.13-0.139-0.2-0.199
		c-0.07-0.061-0.13-0.121-0.2-0.18c-0.13-0.102-0.26-0.191-0.4-0.271c-0.08-0.049-0.17-0.09-0.26-0.129
		c-0.07-0.041-0.15-0.07-0.23-0.09c-0.03-0.01-0.06-0.02-0.09-0.031c-0.07-0.02-0.15-0.039-0.23-0.049
		c-0.02-0.01-0.03-0.01-0.04-0.01c-0.11-0.021-0.23-0.031-0.34-0.031c-0.01,0-0.01,0-0.02,0h-0.01c-0.11,0-0.23,0.01-0.34,0.031
		c-0.01,0-0.03,0-0.04,0.01c-0.08,0.01-0.15,0.029-0.23,0.049c-0.03,0-0.06,0.012-0.09,0.031c-0.08,0.02-0.16,0.049-0.23,0.09
		c-0.09,0.029-0.17,0.07-0.26,0.129c-0.12,0.07-0.24,0.15-0.36,0.25c-0.37,0.271-0.7,0.66-0.98,1.121
		c-0.11,0.18-0.22,0.369-0.31,0.57c-0.1,0.199-0.19,0.41-0.27,0.639c-0.16,0.432-0.28,0.891-0.36,1.381
		c-0.01,0.02-0.01,0.051-0.02,0.08c-0.03,0.189-0.05,0.379-0.07,0.57c-0.01,0.1-0.02,0.199-0.03,0.309
		c-0.01,0.211-0.02,0.432-0.02,0.65c0,0.281,0.01,0.561,0.04,0.83c0,0.051,0,0.09,0.02,0.131c0.03,0.1,0.05,0.199,0.07,0.309
		c0.03,0.172,0.06,0.342,0.09,0.521c0.01,0.109,0.03,0.219,0.03,0.33c0,0.01,0,0.01,0,0.02c0.03,0.301,0.05,0.6,0.05,0.92
		c0,0.35-0.02,0.699-0.06,1.029v0.031c-0.03,0.359-0.1,0.699-0.17,1.02c-0.01,0.01-0.01,0.02-0.01,0.029
		c-0.01,0.021-0.01,0.041,0,0.061c-0.02,0.1-0.03,0.199-0.03,0.301c-0.02,0.209-0.03,0.43-0.03,0.648c0,0.221,0.01,0.441,0.02,0.65
		c0.01,0.111,0.02,0.211,0.03,0.311c0.02,0.189,0.04,0.379,0.07,0.57c0.01,0.029,0.01,0.059,0.02,0.08
		c0.08,0.49,0.2,0.949,0.36,1.379c0.08,0.23,0.17,0.441,0.27,0.641c0.09,0.199,0.2,0.391,0.31,0.57c0.28,0.459,0.61,0.85,0.98,1.129
		c0.12,0.09,0.24,0.17,0.36,0.24c0.09,0.061,0.17,0.1,0.26,0.131c0.07,0.039,0.15,0.07,0.23,0.09c0.03,0.02,0.06,0.029,0.09,0.029
		c0.08,0.02,0.15,0.041,0.23,0.061h0.04c0.11,0.02,0.23,0.029,0.34,0.029h0.01c0.01,0,0.01,0,0.02,0c0.11,0,0.23-0.01,0.34-0.029
		h0.04c0.08-0.02,0.16-0.041,0.23-0.061c0.03-0.01,0.06-0.02,0.09-0.029c0.08-0.02,0.16-0.051,0.23-0.09
		c0.09-0.041,0.18-0.08,0.26-0.131c0.14-0.08,0.27-0.17,0.4-0.27c0.07-0.061,0.13-0.119,0.2-0.18c0.13-0.121,0.26-0.26,0.38-0.4
		c0.22-0.279,0.43-0.6,0.61-0.959c0.07-0.141,0.13-0.281,0.19-0.422c0.02-0.029,0.03-0.059,0.04-0.1c0.05-0.109,0.1-0.229,0.13-0.35
		c0.08-0.221,0.15-0.449,0.2-0.689c0.06-0.189,0.1-0.391,0.13-0.59c0.01-0.021,0.01-0.051,0.02-0.08
		c0.03-0.191,0.05-0.381,0.07-0.57c0.01-0.1,0.02-0.199,0.03-0.311c0.01-0.209,0.02-0.43,0.02-0.65c0-0.27-0.01-0.529-0.04-0.789
		C31.27,37.151,31.26,37.071,31.25,37.001z M27.75,42.962c-1.52,0-2.75-1.621-2.75-3.611c0-1.988,1.23-3.6,2.75-3.6
		s2.75,1.611,2.75,3.6C30.5,41.341,29.27,42.962,27.75,42.962z"/>
	<path fill="#FFFFFF" d="M43.249,37.001c0-0.01,0-0.02-0.01-0.029c-0.07-0.32-0.14-0.66-0.17-1.02v-0.031
		c-0.04-0.33-0.06-0.68-0.06-1.029c0-0.32,0.02-0.619,0.05-0.92c0-0.01,0-0.01,0-0.02c0-0.111,0.02-0.221,0.03-0.33
		c0.03-0.18,0.06-0.35,0.09-0.521c0.02-0.109,0.04-0.209,0.07-0.309c0.02-0.041,0.02-0.08,0.02-0.131
		c0.03-0.27,0.04-0.549,0.04-0.83c0-0.219-0.01-0.439-0.02-0.65c-0.01-0.109-0.02-0.209-0.03-0.309
		c-0.02-0.191-0.04-0.381-0.07-0.57c-0.01-0.029-0.01-0.061-0.02-0.08c-0.03-0.199-0.07-0.4-0.13-0.59
		c-0.05-0.24-0.12-0.471-0.2-0.689c-0.03-0.121-0.08-0.24-0.13-0.352c-0.01-0.039-0.02-0.068-0.04-0.1
		c-0.06-0.141-0.12-0.279-0.19-0.42c-0.18-0.359-0.39-0.68-0.61-0.959c-0.06-0.07-0.12-0.131-0.18-0.201s-0.13-0.139-0.2-0.199
		c-0.07-0.061-0.13-0.121-0.2-0.18c-0.13-0.102-0.26-0.191-0.4-0.271c-0.08-0.049-0.17-0.09-0.26-0.129
		c-0.07-0.041-0.15-0.07-0.23-0.09c-0.03-0.01-0.06-0.02-0.09-0.031c-0.07-0.02-0.15-0.039-0.23-0.049
		c-0.02-0.01-0.03-0.01-0.04-0.01c-0.11-0.021-0.23-0.031-0.34-0.031c-0.01,0-0.01,0-0.02,0h-0.01c-0.11,0-0.23,0.01-0.34,0.031
		c-0.01,0-0.03,0-0.04,0.01c-0.08,0.01-0.15,0.029-0.23,0.049c-0.03,0-0.06,0.012-0.09,0.031c-0.08,0.02-0.16,0.049-0.23,0.09
		c-0.09,0.029-0.17,0.07-0.26,0.129c-0.12,0.07-0.24,0.15-0.36,0.25c-0.37,0.271-0.7,0.66-0.98,1.121
		c-0.11,0.18-0.22,0.369-0.31,0.57c-0.1,0.199-0.19,0.41-0.27,0.639c-0.16,0.432-0.28,0.891-0.36,1.381
		c-0.01,0.02-0.01,0.051-0.02,0.08c-0.03,0.189-0.05,0.379-0.07,0.57c-0.01,0.1-0.02,0.199-0.03,0.309
		c-0.01,0.211-0.02,0.432-0.02,0.65c0,0.281,0.01,0.561,0.04,0.83c0,0.051,0,0.09,0.02,0.131c0.03,0.1,0.05,0.199,0.07,0.309
		c0.03,0.172,0.06,0.342,0.09,0.521c0.01,0.109,0.03,0.219,0.03,0.33c0,0.01,0,0.01,0,0.02c0.03,0.301,0.05,0.6,0.05,0.92
		c0,0.35-0.02,0.699-0.06,1.029v0.031c-0.03,0.359-0.1,0.699-0.17,1.02c-0.01,0.01-0.01,0.02-0.01,0.029
		c-0.01,0.021-0.01,0.041,0,0.061c-0.02,0.1-0.03,0.199-0.03,0.301c-0.02,0.209-0.03,0.43-0.03,0.648c0,0.221,0.01,0.441,0.02,0.65
		c0.01,0.111,0.02,0.211,0.03,0.311c0.02,0.189,0.04,0.379,0.07,0.57c0.01,0.029,0.01,0.059,0.02,0.08
		c0.08,0.49,0.2,0.949,0.36,1.379c0.08,0.23,0.17,0.441,0.27,0.641c0.09,0.199,0.2,0.391,0.31,0.57c0.28,0.459,0.61,0.85,0.98,1.129
		c0.12,0.09,0.24,0.17,0.36,0.24c0.09,0.061,0.17,0.1,0.26,0.131c0.07,0.039,0.15,0.07,0.23,0.09c0.03,0.02,0.06,0.029,0.09,0.029
		c0.08,0.02,0.15,0.041,0.23,0.061h0.04c0.11,0.02,0.23,0.029,0.34,0.029h0.01c0.01,0,0.01,0,0.02,0c0.11,0,0.23-0.01,0.34-0.029
		h0.04c0.08-0.02,0.16-0.041,0.23-0.061c0.03-0.01,0.06-0.02,0.09-0.029c0.08-0.02,0.16-0.051,0.23-0.09
		c0.09-0.041,0.18-0.08,0.26-0.131c0.14-0.08,0.27-0.17,0.4-0.27c0.07-0.061,0.13-0.119,0.2-0.18c0.13-0.121,0.26-0.26,0.38-0.4
		c0.22-0.279,0.43-0.6,0.61-0.959c0.07-0.141,0.13-0.281,0.19-0.422c0.02-0.029,0.03-0.059,0.04-0.1c0.05-0.109,0.1-0.229,0.13-0.35
		c0.08-0.221,0.15-0.449,0.2-0.689c0.06-0.189,0.1-0.391,0.13-0.59c0.01-0.021,0.01-0.051,0.02-0.08
		c0.03-0.191,0.05-0.381,0.07-0.57c0.01-0.1,0.02-0.199,0.03-0.311c0.01-0.209,0.02-0.43,0.02-0.65c0-0.27-0.01-0.529-0.04-0.789
		C43.269,37.151,43.259,37.071,43.249,37.001z M39.749,42.962c-1.52,0-2.75-1.621-2.75-3.611c0-1.988,1.23-3.6,2.75-3.6
		s2.75,1.611,2.75,3.6C42.499,41.341,41.269,42.962,39.749,42.962z"/>
</g>
</svg>
