<?xml version="1.0" encoding="utf-8"?>
<!-- Generator: Adobe Illustrator 16.0.0, SVG Export Plug-In . SVG Version: 6.00 Build 0)  -->
<!DOCTYPE svg PUBLIC "-//W3C//DTD SVG 1.1//EN" "http://www.w3.org/Graphics/SVG/1.1/DTD/svg11.dtd">
<svg version="1.1" id="Layer_1" xmlns="http://www.w3.org/2000/svg" xmlns:xlink="http://www.w3.org/1999/xlink" x="0px" y="0px"
	 width="171px" height="171px" viewBox="0 0 171 171" enable-background="new 0 0 171 171" xml:space="preserve">
<path fill="none" stroke="#FFFFFF" stroke-width="0.9333" stroke-miterlimit="10" d="M166.334,87.458
	c0,11.23-7.21,16.916-17.68,21.466c-4.49,10.431-14.91,17.73-27.051,17.73c-7.01,0-13.449-2.44-18.5-6.521
	c-7.659,5.091-18.109,8.221-29.63,8.221c-23.479,0-42.52-13.021-42.52-29.08c0-0.44,0.01-0.891,0.05-1.33
	c-7.99-4.21-13.32-7.786-13.32-16.437c0-4.729,1.59-9.14,4.34-12.85c4.95-6.69,13.65-11.13,23.561-11.13c1.92,0,3.8,0.17,5.61,0.489
	c3.189-6.5,10.22-11.92,19.409-15.18c5.98-2.13,12.881-3.34,20.221-3.34c19.449,0,35.779,8.5,40.27,19.97
	c1.351-0.16,2.73-0.239,4.12-0.239C152.404,59.229,166.334,71.868,166.334,87.458z"/>
<path fill="none" stroke="#FFFFFF" stroke-width="1.3719" stroke-miterlimit="10" d="M70.604,42.838
	c-9.189,3.26-16.22,8.68-19.409,15.18c-1.811-0.319-3.69-0.489-5.61-0.489c-9.91,0-18.61,4.439-23.561,11.13
	c-0.819-2.63-1.26-5.42-1.26-8.32c0-15.46,12.53-28,28-28C57.604,32.338,65.474,36.448,70.604,42.838z"/>
<line fill="none" stroke="#FFFFFF" stroke-width="1.3719" stroke-miterlimit="10" x1="47.12" y1="26.03" x2="47.12" y2="14.966"/>
<line fill="none" stroke="#FFFFFF" stroke-width="1.3719" stroke-miterlimit="10" x1="26.748" y1="33.278" x2="20.244" y2="24.327"/>
<line fill="none" stroke="#FFFFFF" stroke-width="1.3719" stroke-miterlimit="10" x1="14.527" y1="51.116" x2="4.004" y2="47.698"/>
<line fill="none" stroke="#FFFFFF" stroke-width="1.3719" stroke-miterlimit="10" x1="15.125" y1="72.731" x2="4.603" y2="76.151"/>
<line fill="none" stroke="#FFFFFF" stroke-width="1.3719" stroke-miterlimit="10" x1="67.861" y1="32.14" x2="74.363" y2="23.188"/>
</svg>
