<?xml version="1.0" encoding="utf-8"?>
<!-- Generator: Adobe Illustrator 16.0.0, SVG Export Plug-In . SVG Version: 6.00 Build 0)  -->
<!DOCTYPE svg PUBLIC "-//W3C//DTD SVG 1.1//EN" "http://www.w3.org/Graphics/SVG/1.1/DTD/svg11.dtd">
<svg version="1.1" id="Layer_1" xmlns="http://www.w3.org/2000/svg" xmlns:xlink="http://www.w3.org/1999/xlink" x="0px" y="0px"
	 width="187.333px" height="113px" viewBox="0 0 187.333 113" enable-background="new 0 0 187.333 113" xml:space="preserve">
<path fill="none" stroke="#FFFFFF" stroke-width="1.3719" stroke-miterlimit="10" d="M184.145,97.133c0,1.7-0.06,11.63-0.31,13.25
	H12.985c-0.311-1.62-0.46-11.55-0.46-13.25c0-5.25,1.3-10.18,3.609-14.5c1.76-3.3,4.11-6.24,6.91-8.689
	c1.84-1.65,3.87-3.07,6.06-4.221c4.15-2.21,8.841-3.479,13.83-3.58c1.98-14.939,11.091-27.59,23.74-34.52
	c0.67-0.37,1.34-0.72,2.03-1.05c6.08-2.98,12.95-4.63,20.16-4.63c0.88,0,1.76,0.029,2.63,0.079
	c18.229,1.03,33.649,12.62,40.26,28.83c2.96-0.63,6.04-1,9.17-1C164.775,53.853,184.145,73.173,184.145,97.133z"/>
<path fill="none" stroke="#FFFFFF" stroke-width="1.3719" stroke-miterlimit="10" d="M68.705,30.573c-0.69,0.33-1.36,0.68-2.03,1.05
	c-12.649,6.93-21.76,19.58-23.74,34.52c-4.989,0.101-9.68,1.37-13.83,3.58c-6.27-5.14-10.26-12.939-10.26-21.67
	c0-15.46,12.53-28,28-28C55.695,20.053,63.585,24.163,68.705,30.573z"/>
<line fill="none" stroke="#FFFFFF" stroke-width="1.3719" stroke-miterlimit="10" x1="45.203" y1="13.74" x2="45.203" y2="2.676"/>
<line fill="none" stroke="#FFFFFF" stroke-width="1.3719" stroke-miterlimit="10" x1="24.831" y1="20.988" x2="18.327" y2="12.037"/>
<line fill="none" stroke="#FFFFFF" stroke-width="1.3719" stroke-miterlimit="10" x1="12.61" y1="38.826" x2="2.087" y2="35.408"/>
<line fill="none" stroke="#FFFFFF" stroke-width="1.3719" stroke-miterlimit="10" x1="13.208" y1="60.441" x2="2.686" y2="63.861"/>
<line fill="none" stroke="#FFFFFF" stroke-width="1.3719" stroke-miterlimit="10" x1="65.944" y1="19.85" x2="72.446" y2="10.898"/>
</svg>
