<?xml version="1.0" encoding="utf-8"?>
<!-- Generator: Adobe Illustrator 16.0.0, SVG Export Plug-In . SVG Version: 6.00 Build 0)  -->
<!DOCTYPE svg PUBLIC "-//W3C//DTD SVG 1.1//EN" "http://www.w3.org/Graphics/SVG/1.1/DTD/svg11.dtd">
<svg version="1.1" id="Layer_1" xmlns="http://www.w3.org/2000/svg" xmlns:xlink="http://www.w3.org/1999/xlink" x="0px" y="0px"
	 width="67px" height="67px" viewBox="0 0 67 67" enable-background="new 0 0 67 67" xml:space="preserve">
<circle fill="none" stroke="#FFFFFF" stroke-miterlimit="10" cx="33.5" cy="34.001" r="32.263"/>
<g>
	<g>
		<path fill="#FFFFFF" d="M30.916,38.104v0.01c-0.67,2.13-2.021,3.589-3.579,3.589c-1.706,0-3.165-1.735-3.767-4.2
			c2.1-3.126,3.244-7.08,3.678-8.845C27.791,31.143,29.033,35.984,30.916,38.104z"/>
		<path fill="#FFFFFF" d="M31.646,29.072c0,0.286-0.02,0.572-0.069,0.838c-0.079,0.286-0.138,0.581-0.197,0.888
			c-0.099,0.591-0.158,1.223-0.158,1.874c0,0.187,0,0.384,0.02,0.571c0.02,0.404,0.059,0.799,0.118,1.183
			c0.02,0.188,0.02,0.386,0.02,0.572c0,0.611-0.05,1.203-0.138,1.766c-0.71-1.41-2.061-4.447-3.688-9.654
			c0.009-0.019,0.009-0.039,0.009-0.059c0-0.178-0.147-0.325-0.325-0.325c-0.177,0-0.326,0.147-0.326,0.325
			c-1.055,4.338-2.623,7.347-3.589,8.885c-0.03-0.306-0.04-0.621-0.04-0.938c0-0.315,0.01-0.621,0.04-0.917
			c0.02-0.157,0.04-0.325,0.049-0.492c0.03-0.296,0.04-0.603,0.04-0.917c0-0.73-0.069-1.44-0.198-2.102
			c-0.049-0.157-0.078-0.314-0.108-0.482c-0.059-0.325-0.088-0.671-0.088-1.016c0-2.791,1.933-5.049,4.319-5.049
			C29.713,24.023,31.646,26.281,31.646,29.072z"/>
	</g>
	<g>
		<path fill="#FFFFFF" d="M34.266,38.104v0.01c0.67,2.13,2.021,3.589,3.58,3.589c1.706,0,3.165-1.735,3.767-4.2
			c-2.101-3.126-3.245-7.08-3.678-8.845C37.392,31.143,36.149,35.984,34.266,38.104z"/>
		<path fill="#FFFFFF" d="M33.536,29.072c0,0.286,0.02,0.572,0.069,0.838c0.079,0.286,0.138,0.581,0.197,0.888
			c0.099,0.591,0.158,1.223,0.158,1.874c0,0.187,0,0.384-0.02,0.571c-0.02,0.404-0.06,0.799-0.119,1.183
			c-0.02,0.188-0.02,0.386-0.02,0.572c0,0.611,0.049,1.203,0.138,1.766c0.709-1.41,2.061-4.447,3.688-9.654
			c-0.01-0.019-0.01-0.039-0.01-0.059c0-0.178,0.148-0.325,0.326-0.325c0.177,0,0.325,0.147,0.325,0.325
			c1.055,4.338,2.623,7.347,3.589,8.885c0.03-0.306,0.04-0.621,0.04-0.938c0-0.315-0.009-0.621-0.04-0.917
			c-0.02-0.157-0.039-0.325-0.049-0.492c-0.03-0.296-0.04-0.603-0.04-0.917c0-0.73,0.069-1.44,0.197-2.102
			c0.049-0.157,0.079-0.314,0.108-0.482c0.059-0.325,0.089-0.671,0.089-1.016c0-2.791-1.933-5.049-4.319-5.049
			C35.469,24.023,33.536,26.281,33.536,29.072z"/>
	</g>
</g>
</svg>
