<?xml version="1.0" encoding="utf-8"?>
<!-- Generator: Adobe Illustrator 16.0.0, SVG Export Plug-In . SVG Version: 6.00 Build 0)  -->
<!DOCTYPE svg PUBLIC "-//W3C//DTD SVG 1.1//EN" "http://www.w3.org/Graphics/SVG/1.1/DTD/svg11.dtd">
<svg version="1.1" id="Layer_1" xmlns="http://www.w3.org/2000/svg" xmlns:xlink="http://www.w3.org/1999/xlink" x="0px" y="0px"
	 width="28.5px" height="29.25px" viewBox="0 0 28.5 29.25" enable-background="new 0 0 28.5 29.25" xml:space="preserve">
<g>
	<path fill="#FFFFFF" d="M10.61,4.801c3.377,0,6.125,2.746,6.125,6.123s-2.748,6.123-6.125,6.123c-3.375,0-6.121-2.746-6.121-6.123
		S7.235,4.801,10.61,4.801 M10.61,1.467c-5.221,0-9.455,4.234-9.455,9.457s4.234,9.457,9.455,9.457c5.225,0,9.459-4.234,9.459-9.457
		S15.835,1.467,10.61,1.467L10.61,1.467z"/>
	<g>
		
			<rect x="13.471" y="19.724" transform="matrix(0.7125 0.7017 -0.7017 0.7125 21.0143 -8.5079)" fill="#FFFFFF" width="14.837" height="3.333"/>
	</g>
</g>
</svg>
