<?xml version="1.0" encoding="utf-8"?>
<!-- Generator: Adobe Illustrator 16.0.0, SVG Export Plug-In . SVG Version: 6.00 Build 0)  -->
<!DOCTYPE svg PUBLIC "-//W3C//DTD SVG 1.1//EN" "http://www.w3.org/Graphics/SVG/1.1/DTD/svg11.dtd">
<svg version="1.1" id="Layer_1" xmlns="http://www.w3.org/2000/svg" xmlns:xlink="http://www.w3.org/1999/xlink" x="0px" y="0px"
	 width="67px" height="67px" viewBox="0 0 67 67" enable-background="new 0 0 67 67" xml:space="preserve">
<circle fill="none" stroke="#FFFFFF" stroke-miterlimit="10" cx="33.5" cy="33.501" r="32.263"/>
<path fill="#FFFFFF" d="M46.003,28.548l-3.769-2.115l1.12,23.814H23.359l1.115-23.814l-3.764,2.115l-2.882-6.385l7.278-4.236
	l0.069-0.016c0.457,0.389,3.329,2.721,7.301,3.02c0.148,0.018,0.302,0.027,0.46,0.027c0.283,0.016,0.568,0.016,0.841,0
	c0.158,0,0.311-0.01,0.457-0.027c3.968-0.299,6.84-2.631,7.298-3.02l0.068,0.01l7.278,4.242L46.003,28.548z"/>
</svg>
