<?xml version="1.0" encoding="utf-8"?>
<!-- Generator: Adobe Illustrator 16.0.0, SVG Export Plug-In . SVG Version: 6.00 Build 0)  -->
<!DOCTYPE svg PUBLIC "-//W3C//DTD SVG 1.1//EN" "http://www.w3.org/Graphics/SVG/1.1/DTD/svg11.dtd">
<svg version="1.1" id="Layer_1" xmlns="http://www.w3.org/2000/svg" xmlns:xlink="http://www.w3.org/1999/xlink" x="0px" y="0px"
	 width="171px" height="171px" viewBox="0 0 171 171" enable-background="new 0 0 171 171" xml:space="preserve">
<g>
	<path fill="none" stroke="#FFFFFF" stroke-width="1.2663" stroke-miterlimit="10" d="M136.051,84.896
		c0,27.971-22.675,50.648-50.648,50.648c-27.973,0-50.65-22.678-50.65-50.648c0-27.976,22.678-50.65,50.65-50.65
		C113.376,34.246,136.051,56.921,136.051,84.896z"/>
	
		<line fill="none" stroke="#FFFFFF" stroke-width="1.2661" stroke-linecap="round" stroke-miterlimit="10" x1="84.4" y1="9.575" x2="84.4" y2="26.535"/>
	
		<line fill="none" stroke="#FFFFFF" stroke-width="1.2661" stroke-linecap="round" stroke-miterlimit="10" x1="46.584" y1="20.298" x2="55.064" y2="34.985"/>
	
		<line fill="none" stroke="#FFFFFF" stroke-width="1.2661" stroke-linecap="round" stroke-miterlimit="10" x1="19.196" y1="48.493" x2="33.886" y2="56.972"/>
	
		<line fill="none" stroke="#FFFFFF" stroke-width="1.2661" stroke-linecap="round" stroke-miterlimit="10" x1="9.575" y1="86.602" x2="26.537" y2="86.602"/>
	
		<line fill="none" stroke="#FFFFFF" stroke-width="1.2661" stroke-linecap="round" stroke-miterlimit="10" x1="20.3" y1="124.416" x2="34.986" y2="115.936"/>
	
		<line fill="none" stroke="#FFFFFF" stroke-width="1.2661" stroke-linecap="round" stroke-miterlimit="10" x1="48.491" y1="151.804" x2="56.972" y2="137.114"/>
	
		<line fill="none" stroke="#FFFFFF" stroke-width="1.2661" stroke-linecap="round" stroke-miterlimit="10" x1="86.602" y1="161.425" x2="86.602" y2="144.463"/>
	
		<line fill="none" stroke="#FFFFFF" stroke-width="1.2661" stroke-linecap="round" stroke-miterlimit="10" x1="124.414" y1="150.704" x2="115.936" y2="136.014"/>
	
		<line fill="none" stroke="#FFFFFF" stroke-width="1.2661" stroke-linecap="round" stroke-miterlimit="10" x1="151.804" y1="122.509" x2="137.114" y2="114.026"/>
	
		<line fill="none" stroke="#FFFFFF" stroke-width="1.2661" stroke-linecap="round" stroke-miterlimit="10" x1="161.425" y1="84.4" x2="144.463" y2="84.398"/>
	
		<line fill="none" stroke="#FFFFFF" stroke-width="1.2661" stroke-linecap="round" stroke-miterlimit="10" x1="150.702" y1="46.586" x2="136.012" y2="55.064"/>
	
		<line fill="none" stroke="#FFFFFF" stroke-width="1.2661" stroke-linecap="round" stroke-miterlimit="10" x1="122.511" y1="19.198" x2="114.026" y2="33.889"/>
</g>
</svg>
